<svg version="1.2" xmlns="http://www.w3.org/2000/svg" viewBox="0 0 24 24" width="24" height="24"><style>tspan{white-space:pre}.a{fill:#fcfcfc}.b{font-size: 9px;line-height: 53px;fill: #000000;font-weight: 200;font-family: "NunitoSans-Black", "Nunito Sans"}</style><path class="a" d="m8.9 3.6c-4.5 0-8.2 3.7-8.2 8.2 0 4.5 3.7 8.2 8.2 8.2 4.5 0 8.2-3.7 8.2-8.2 0-4.5-3.7-8.2-8.2-8.2zm6.5 20.2c4 0 7.3-3.3 7.3-7.3 0-2.8-1.5-5.2-3.9-6.5q0.2 0.9 0.2 1.8c0 5-3.7 9.2-8.6 10 1.4 1.3 3.1 2 5 2zm0.9-23.9c-1.9 0-3.8 0.8-5.1 2.1 3 0.7 5.6 2.8 6.9 5.7 1.8 0.5 3.4 1.7 4.6 3.2 0.6-1.2 0.9-2.4 0.9-3.7 0-4-3.2-7.3-7.3-7.3z"/><text transform="translate(2,15)"><tspan x="0" y="0" class="b">Au
</tspan></text></svg>