<svg version="1.2" xmlns="http://www.w3.org/2000/svg" viewBox="0 0 26 21" width="26" height="21"><style>.a{fill:#fff}</style><path class="a" d="m22.3 15c-1 0-2 0.6-2.5 1.6l-0.1 0.2h-6.8l-0.1-0.2c-0.5-1-1.5-1.6-2.6-1.6h-0.5l-0.3-1.6h13.2l3.3-10.4h-19.1l-0.7-3.1h-5.3v0.8h4.8l3.5 14.5-0.2 0.1c-0.9 0.6-1.5 1.6-1.5 2.7 0 1.6 1.3 2.9 2.9 2.9 1.6 0 2.9-1.3 2.9-2.9v-0.5h6.4v0.4c0 1.6 1.2 2.9 2.8 3 1.6 0 2.9-1.3 2.9-2.9 0-1.7-1.3-3-3-3zm-15.3-11.4h17.8l-2.7 9.1h-12.9zm3.2 16.5c-1.2 0-2.2-1-2.2-2.3 0-1.2 1-2.2 2.2-2.2 1.2 0 2.1 1 2.1 2.2 0.1 1.3-0.9 2.3-2 2.3zm12.1 0c-1.2 0-2.2-1-2.2-2.3 0-1.2 1-2.2 2.2-2.2 1.2 0 2.2 1 2.2 2.2 0 1.3-1 2.3-2.2 2.3z"/></svg>