<svg version="1.2" xmlns="http://www.w3.org/2000/svg" viewBox="0 0 21 24" width="21" height="24"><style>.a{fill:#fff;stroke:#000;stroke-miterlimit:100;stroke-width:.4}</style><path fill-rule="evenodd" class="a" d="m11 1c7.3 0 8.1 12 0 12-8.1 0-7.3-12 0-12zm0 11c6.1 0 6-10 0-10-6 0-6 10 0 10zm9 11h-19v-4c0 0-0.3-3.5 2.1-4.4q0.1 0 0.1 0c2.1-0.5 3.8-1.7 3.8-1.7l0.9 1.1-0.1 0.1c-0.4 0.3-2.2 1.4-4.2 1.9-1.1 0.4-1.6 3-1.6 3v3h17v-3c0 0-0.1-2.5-1.3-3-2.3-0.6-4.3-1.9-4.3-1.9l0.8-1.2c0 0 1.8 1.2 3.9 1.7 2.1 0.8 1.9 4.4 1.9 4.4z"/></svg>