<svg version="1.2" xmlns="http://www.w3.org/2000/svg" viewBox="0 0 27 16" width="27" height="16"><style>.a{fill:#fff}</style><path fill-rule="evenodd" class="a" d="m26.5 15.2c-0.4 0.5-0.9 0.7-1.5 0.7h-8.8q-0.2 0-0.4 0c-1.1-0.2-1.8-1.3-1.5-2.3l0.7-5.3c0.1-0.1 1-0.2 1-0.3h9c0.1 0.1 1.1 0.1 1.1 0.3l0.8 5.3c0.2 0.6 0 1.1-0.4 1.6zm-6.5-9.2v1h-12v-3h-0.1l0.4-2.4c0.2-0.9 1.1-1.5 2-1.5h7.2c1 0 1.8 0.6 2 1.5l0.5 3zm-7.2 2.2l0.8 5.4c0.1 0.5-0.1 1.1-0.4 1.6-0.4 0.4-1 0.7-1.6 0.7h-8.7q-0.2 0-0.4 0c-1.1-0.3-1.8-1.3-1.6-2.4l0.8-5.2c0-0.1 1.3-0.2 1.3-0.3h9c0 0.1 0.8 0.2 0.8 0.2z"/></svg>