<svg version="1.2" xmlns="http://www.w3.org/2000/svg" viewBox="0 0 23 21" width="23" height="21"><style>.a{fill:#fff;stroke:#000;stroke-miterlimit:100;stroke-width:.4}</style><path class="a" d="m20.1 2.8c-1.1-1.1-2.6-1.7-4.1-1.7-1.6 0-3.1 0.6-4.2 1.7l-0.6 0.6-0.6-0.6c-1.1-1.1-2.6-1.8-4.1-1.8-1.6 0-3.1 0.7-4.2 1.8-1.1 1.1-1.7 2.6-1.7 4.1 0 1.6 0.6 3.1 1.7 4.2l8.9 8.8 8.9-8.8c1.1-1.1 1.7-2.6 1.7-4.2 0-1.5-0.6-3-1.7-4.1zm-0.9 7.4l-8 8-8-8c-0.9-0.9-1.4-2-1.4-3.3 0-1.2 0.5-2.4 1.4-3.3 0.8-0.8 2-1.3 3.3-1.3 1.2 0 2.4 0.5 3.3 1.3l1 1c0.1 0.2 0.4 0.5 0.4 0.5 0 0 0.3-0.3 0.4-0.5l1-1c0.9-0.8 2.1-1.3 3.3-1.3 1.3 0 2.5 0.5 3.3 1.3 0.9 0.9 1.4 2.1 1.4 3.3 0 1.3-0.5 2.4-1.4 3.3z"/></svg>